<svg xmlns="http://www.w3.org/2000/svg" viewBox="68 69 116 116" preserveAspectRatio="xMidYMid meet" role="img" aria-label="V3">
  <title>V3</title>
  <defs>
    <linearGradient id="g" x1="0" y1="0" x2="1" y2="1">
      <stop offset="0" stop-color="#D4A017"/>
      <stop offset="1" stop-color="#22CC8F"/>
    </linearGradient>
  </defs>
  <!-- Stroke overlay для боldness — 5px у viewBox-units (~0.7px at 16x favicon).
       linejoin round згладжує гострі кути V. Stroke на тих самих paths що
       fill, тому fill-rule="evenodd" зберігається (внутрішні "дірки" V лишаються
       чорними/прозорими). Якщо stroke створює artifacts — забрати, лишити fill. -->
  <g fill="url(#g)" stroke="url(#g)" stroke-width="5" stroke-linejoin="round" fill-rule="evenodd">
    <path d="M68.00,96.40L74.80,106.40L75.20,107.60L77.60,110.80L78.00,112.00L82.80,118.80L83.20,120.00L86.00,123.60L86.80,125.60L88.00,126.80L88.40,128.00L94.80,137.20L96.40,140.40L101.20,147.20L101.60,148.40L108.00,158.00L108.80,157.60L112.00,152.80L112.40,151.60L113.60,150.40L114.80,148.00L116.00,146.80L122.40,137.20L122.80,136.00L125.60,132.40L130.40,125.20L131.60,122.80L132.80,121.60L133.60,119.60L135.20,118.00L144.80,103.20L146.80,100.80L174.00,100.80L174.40,101.20L174.00,102.40L172.40,104.00L169.20,108.80L168.40,109.20L165.60,113.60L163.60,115.60L162.80,117.20L160.00,120.40L154.00,128.80L168.00,128.80L168.40,129.20L169.60,129.20L172.80,130.80L176.40,134.40L176.40,135.20L177.20,136.00L177.20,136.80L178.00,138.00L178.00,140.00L178.40,140.40L178.40,141.20L178.00,141.60L178.00,144.00L177.20,145.20L177.20,146.00L176.40,146.80L176.00,148.00L172.00,151.60L170.40,152.40L167.20,152.80L166.80,153.20L152.80,153.20L149.60,158.00L168.40,158.00L168.80,157.60L170.40,157.60L174.80,155.60L178.00,152.80L178.40,152.80L180.80,149.60L182.40,146.40L182.80,143.20L183.20,142.80L183.20,138.80L182.80,138.40L182.00,134.40L180.80,132.80L180.40,131.60L177.20,128.00L174.40,126.00L170.40,124.40L169.20,124.40L168.80,124.00L166.80,124.00L166.40,123.60L166.00,124.00L164.80,124.00L164.40,123.60L164.40,122.80L181.20,100.80L182.00,99.20L184.00,96.80L184.00,96.00L144.40,96.00L143.20,97.20L141.20,100.80L140.00,102.00L139.60,103.20L136.80,106.80L136.40,108.00L135.20,109.20L127.20,121.60L126.00,122.80L124.00,126.40L120.40,131.20L119.20,133.60L118.00,134.80L116.80,134.00L113.60,129.20L113.20,128.00L110.00,123.60L109.60,122.40L106.40,118.00L106.00,116.80L102.80,112.40L102.40,111.20L97.60,104.40L96.00,101.20L93.20,97.60L92.80,96.40L92.00,96.00L68.40,96.00Z M76.40,99.60L90.00,99.60L93.20,104.00L93.60,105.20L98.80,112.80L99.20,114.00L102.00,117.60L103.60,120.80L106.80,125.20L107.20,126.40L115.20,138.40L114.80,140.40L108.40,149.60L108.00,149.60L106.40,148.00L105.60,146.00L92.80,126.80L92.40,125.60L86.40,116.80L86.00,115.60L84.00,113.20L81.60,108.80L76.00,100.80L76.00,100.00Z"/>
    <path d="M146.40,150.40L142.00,150.40L136.80,158.00L141.20,158.00L143.20,155.60L144.40,153.20L146.40,151.20Z"/>
  </g>
</svg>
